<svg xmlns="http://www.w3.org/2000/svg" xmlns:xlink="http://www.w3.org/1999/xlink" width="1366" zoomAndPan="magnify" viewBox="0 0 1024.5 576" height="768" preserveAspectRatio="xMidYMid meet" version="1.0"><defs><g/><clipPath id="8ff10603a1"><path d="M 679.347656 214.851562 L 708.550781 214.851562 L 708.550781 267.253906 L 679.347656 267.253906 Z M 679.347656 214.851562 " clip-rule="nonzero"/></clipPath><clipPath id="ad8713d8ea"><path d="M 699.707031 230.128906 C 698.882812 234.25 698.285156 234.476562 697.835938 234.550781 C 697.308594 234.699219 696.859375 234.625 696.183594 234.25 C 694.535156 233.277344 690.113281 227.804688 689.363281 225.628906 C 688.988281 224.582031 688.988281 223.679688 689.289062 223.082031 C 689.664062 222.558594 690.5625 222.105469 691.164062 222.105469 C 691.835938 222.105469 692.511719 222.332031 693.035156 223.082031 C 694.386719 224.804688 696.558594 232.902344 695.734375 234.925781 C 695.285156 235.902344 693.488281 236.726562 693.035156 236.425781 C 692.363281 235.976562 693.1875 230.726562 694.160156 229.152344 C 694.761719 228.027344 696.035156 226.980469 696.859375 227.054688 C 697.835938 227.128906 699.109375 228.628906 699.632812 230.054688 C 700.382812 232.078125 700.308594 236.949219 699.632812 238.75 C 699.332031 239.796875 698.660156 240.546875 697.984375 240.773438 C 697.535156 240.996094 696.859375 240.921875 696.410156 240.699219 C 695.886719 240.398438 695.210938 239.796875 695.0625 238.972656 C 694.835938 237.699219 696.035156 235.601562 696.785156 233.5 C 697.757812 230.652344 699.109375 225.03125 700.609375 223.605469 C 701.28125 222.933594 702.183594 222.632812 702.855469 222.78125 C 703.382812 222.855469 704.054688 223.53125 704.28125 224.054688 C 704.507812 224.507812 704.507812 224.878906 704.28125 225.554688 C 703.832031 227.128906 700.90625 232.300781 699.332031 232.828125 C 698.433594 233.125 697.011719 232.601562 696.558594 231.851562 C 696.035156 231.027344 696.410156 228.480469 697.011719 227.65625 C 697.460938 226.980469 698.660156 226.453125 699.332031 226.605469 C 700.007812 226.753906 700.984375 227.65625 701.058594 228.480469 C 701.28125 229.753906 699.109375 233.125 698.132812 234.027344 C 697.683594 234.476562 697.160156 234.625 696.710938 234.625 C 696.183594 234.625 695.511719 234.550781 695.136719 234.101562 C 694.6875 233.652344 694.234375 232.753906 694.386719 231.628906 C 694.835938 228.554688 702.558594 217.085938 705.105469 215.433594 C 706.003906 214.910156 706.828125 214.910156 707.355469 215.136719 C 707.953125 215.433594 708.480469 216.183594 708.480469 217.160156 C 708.402344 220.53125 698.507812 232.152344 695.660156 238.148438 C 693.785156 242.199219 693.410156 247.519531 692.0625 248.867188 C 691.460938 249.46875 690.710938 249.542969 690.1875 249.46875 C 689.664062 249.46875 689.136719 249.242188 688.914062 248.71875 C 688.390625 247.894531 688.464844 245.945312 688.839844 243.996094 C 689.363281 240.773438 692.0625 233.050781 693.636719 231.402344 C 694.234375 230.804688 694.910156 230.652344 695.511719 230.726562 C 696.035156 230.804688 696.859375 231.328125 697.160156 231.851562 C 697.382812 232.378906 697.382812 232.902344 697.160156 233.800781 C 696.484375 236.574219 691.761719 247.371094 689.363281 249.167969 C 688.390625 249.84375 687.113281 249.992188 686.515625 249.542969 C 685.914062 249.167969 685.617188 247.96875 685.765625 246.84375 C 685.914062 244.972656 688.164062 240.472656 689.4375 239.574219 C 690.113281 239.050781 690.9375 239.050781 691.539062 239.273438 C 692.0625 239.421875 692.738281 240.25 692.886719 240.773438 C 693.113281 241.222656 693.035156 241.824219 692.738281 242.347656 C 692.363281 243.097656 690.9375 244.296875 690.039062 244.296875 C 689.289062 244.371094 688.164062 243.546875 687.863281 242.945312 C 687.5625 242.421875 687.714844 241.671875 688.015625 240.921875 C 688.613281 239.5 691.085938 236.875 692.4375 236.050781 C 693.335938 235.601562 694.234375 235.300781 694.910156 235.527344 C 695.585938 235.75 696.335938 236.648438 696.558594 237.398438 C 696.859375 238.222656 696.484375 239.125 696.109375 240.546875 C 695.285156 243.621094 692.136719 252.917969 690.414062 254.640625 C 689.738281 255.242188 689.136719 255.390625 688.539062 255.316406 C 688.015625 255.242188 687.265625 254.714844 686.964844 254.265625 C 686.664062 253.816406 686.589844 253.292969 686.738281 252.765625 C 686.890625 251.941406 687.640625 250.519531 688.390625 250.144531 C 689.136719 249.769531 690.789062 249.917969 691.3125 250.441406 C 691.761719 250.96875 691.914062 252.015625 691.613281 252.917969 C 691.085938 254.492188 688.238281 257.265625 686.589844 258.464844 C 685.464844 259.289062 683.964844 260.339844 683.214844 259.964844 C 682.390625 259.589844 682.015625 257.789062 681.941406 256.140625 C 681.941406 253.292969 684.265625 246.019531 685.464844 244.296875 C 685.914062 243.695312 686.363281 243.472656 686.816406 243.320312 C 687.339844 243.171875 688.089844 243.246094 688.539062 243.472656 C 688.988281 243.695312 689.4375 244.222656 689.664062 244.746094 C 689.886719 245.195312 689.886719 245.644531 689.664062 246.394531 C 689.214844 248.644531 685.539062 257.039062 683.589844 258.390625 C 682.691406 258.988281 681.640625 258.988281 681.042969 258.6875 C 680.441406 258.464844 679.84375 257.789062 679.84375 256.964844 C 679.691406 254.867188 684.265625 247.292969 685.765625 245.71875 C 686.289062 245.195312 686.738281 244.972656 687.191406 244.894531 C 687.714844 244.820312 688.464844 244.894531 688.839844 245.269531 C 689.363281 245.71875 689.8125 246.546875 689.886719 247.746094 C 690.039062 250.519531 687.191406 259.8125 686.289062 262.136719 C 685.914062 262.886719 685.839844 263.261719 685.390625 263.636719 C 684.867188 264.011719 683.742188 264.238281 683.140625 264.085938 C 682.617188 263.9375 682.015625 263.488281 681.71875 262.960938 C 681.492188 262.511719 681.191406 261.761719 681.417969 261.3125 C 681.71875 260.636719 683.742188 259.664062 684.414062 259.890625 C 684.941406 260.113281 685.242188 261.238281 685.316406 262.0625 C 685.390625 263.113281 684.941406 264.910156 684.414062 265.8125 C 684.117188 266.410156 683.667969 266.859375 683.066406 267.011719 C 682.46875 267.234375 681.265625 267.160156 680.742188 266.710938 C 680.144531 266.335938 679.617188 264.613281 679.617188 264.613281 C 679.542969 264.613281 680.367188 266.484375 680.367188 266.484375 C 680.441406 266.410156 679.542969 264.835938 679.617188 264.160156 C 679.769531 263.488281 680.441406 262.585938 681.117188 262.289062 C 681.792969 261.988281 682.917969 261.988281 683.515625 262.4375 C 684.191406 262.886719 684.789062 264.535156 684.640625 265.359375 C 684.492188 266.035156 683.667969 266.859375 682.992188 267.085938 C 682.316406 267.234375 681.117188 267.085938 680.59375 266.636719 C 680.066406 266.1875 679.542969 265.136719 679.617188 264.460938 C 679.617188 263.710938 680.292969 262.738281 680.894531 262.363281 C 681.492188 262.0625 682.617188 261.988281 683.292969 262.289062 C 683.964844 262.664062 684.714844 263.863281 684.714844 264.613281 C 684.789062 265.285156 684.265625 266.335938 683.589844 266.710938 C 682.917969 267.160156 681.417969 267.160156 680.742188 266.710938 C 680.066406 266.335938 679.769531 265.585938 679.617188 264.613281 C 679.320312 263.039062 679.320312 258.765625 680.441406 257.714844 C 681.265625 256.890625 683.367188 256.742188 684.339844 257.339844 C 685.390625 258.015625 686.363281 261.011719 686.289062 262.136719 C 686.214844 262.738281 685.839844 263.261719 685.390625 263.636719 C 684.941406 263.9375 684.265625 264.238281 683.742188 264.160156 C 683.066406 264.085938 682.09375 263.5625 681.71875 262.960938 C 681.417969 262.511719 681.417969 262.136719 681.417969 261.3125 C 681.492188 258.765625 684.191406 248.34375 685.464844 246.171875 C 685.914062 245.496094 686.140625 245.195312 686.664062 245.046875 C 687.265625 244.820312 688.3125 244.972656 688.839844 245.269531 C 689.289062 245.496094 689.664062 246.09375 689.8125 246.621094 C 689.964844 247.070312 689.886719 247.519531 689.664062 248.269531 C 689.0625 250.144531 685.691406 256.515625 683.964844 257.941406 C 683.140625 258.6875 682.242188 259.0625 681.492188 258.914062 C 680.816406 258.6875 679.992188 257.941406 679.84375 256.964844 C 679.46875 254.640625 683.589844 246.09375 685.464844 244.296875 C 686.289062 243.472656 687.265625 243.246094 688.015625 243.320312 C 688.539062 243.320312 689.0625 243.773438 689.363281 244.222656 C 689.664062 244.671875 689.886719 245.796875 689.8125 245.871094 C 689.8125 245.871094 689.363281 244.597656 689.214844 244.597656 C 688.765625 244.671875 688.914062 251.191406 688.3125 253.21875 C 687.9375 254.417969 687.414062 255.089844 686.964844 255.839844 C 686.589844 256.589844 686.214844 257.789062 685.617188 257.863281 C 685.015625 257.941406 683.292969 256.515625 683.292969 255.617188 C 683.292969 254.117188 687.789062 249.917969 689.363281 249.769531 C 690.339844 249.695312 691.539062 250.667969 691.761719 251.34375 C 691.988281 252.167969 691.085938 253.964844 690.414062 254.640625 C 689.8125 255.167969 688.6875 255.464844 688.089844 255.242188 C 687.414062 254.941406 686.816406 253.964844 686.738281 252.765625 C 686.589844 249.84375 690.636719 238.375 692.660156 237.699219 C 693.636719 237.324219 695.511719 238.597656 695.585938 239.421875 C 695.734375 240.546875 692.0625 243.847656 690.5625 244.222656 C 689.664062 244.445312 688.613281 243.996094 688.164062 243.398438 C 687.714844 242.871094 687.714844 241.597656 688.015625 240.921875 C 688.390625 240.097656 689.664062 239.199219 690.414062 239.125 C 691.238281 239.125 692.660156 239.875 692.886719 240.773438 C 693.410156 242.421875 690.863281 247.96875 689.363281 249.167969 C 688.539062 249.769531 687.113281 249.992188 686.515625 249.542969 C 685.914062 249.167969 685.617188 248.121094 685.765625 246.84375 C 686.066406 243.773438 691.613281 233.277344 693.636719 231.402344 C 694.3125 230.804688 694.910156 230.652344 695.511719 230.726562 C 696.035156 230.804688 696.859375 231.328125 697.160156 231.851562 C 697.382812 232.226562 697.382812 232.675781 697.308594 233.351562 C 697.160156 234.476562 695.808594 236.199219 695.0625 238.148438 C 694.011719 240.996094 693.335938 247.519531 692.0625 248.867188 C 691.460938 249.46875 690.710938 249.617188 690.1875 249.46875 C 689.511719 249.320312 688.6875 248.71875 688.464844 247.820312 C 688.015625 246.09375 689.589844 242.273438 691.238281 238.597656 C 693.863281 232.601562 701.882812 218.285156 704.804688 215.808594 C 705.628906 215.136719 706.304688 214.835938 706.90625 214.984375 C 707.578125 215.210938 708.402344 216.109375 708.480469 217.160156 C 708.554688 220.15625 700.234375 232.152344 698.132812 234.027344 C 697.535156 234.550781 697.160156 234.625 696.710938 234.625 C 696.183594 234.625 695.511719 234.550781 695.136719 234.101562 C 694.6875 233.652344 694.3125 232.527344 694.386719 231.628906 C 694.609375 230.351562 696.335938 227.953125 697.308594 227.203125 C 697.984375 226.753906 698.734375 226.453125 699.332031 226.605469 C 700.007812 226.828125 700.90625 227.65625 701.058594 228.480469 C 701.359375 229.453125 700.609375 232.003906 699.785156 232.527344 C 699.109375 232.976562 697.460938 232.828125 696.933594 232.300781 C 696.410156 231.851562 696.335938 230.804688 696.558594 229.828125 C 696.933594 228.105469 699.632812 224.132812 700.90625 223.230469 C 701.582031 222.707031 702.257812 222.632812 702.855469 222.707031 C 703.382812 222.855469 704.054688 223.230469 704.28125 224.054688 C 704.957031 226.304688 700.984375 236.949219 699.558594 239.273438 C 699.035156 240.171875 698.585938 240.625 697.984375 240.773438 C 697.535156 240.996094 696.859375 240.921875 696.410156 240.699219 C 695.886719 240.472656 695.511719 240.171875 695.210938 239.5 C 694.761719 238.300781 695.210938 234.925781 695.285156 233.351562 C 695.285156 232.300781 694.984375 231.328125 695.4375 230.878906 C 695.960938 230.351562 698.058594 229.976562 698.507812 230.503906 C 699.257812 231.328125 697.757812 235.824219 696.933594 237.550781 C 696.335938 238.597656 695.660156 239.796875 694.835938 239.949219 C 694.011719 240.097656 692.738281 239.347656 691.988281 238.300781 C 690.5625 236.425781 689.8125 230.726562 689.4375 227.878906 C 689.214844 226.003906 688.765625 223.980469 689.289062 223.082031 C 689.664062 222.40625 690.5625 222.105469 691.164062 222.105469 C 691.835938 222.03125 692.363281 222.40625 693.113281 223.007812 C 694.835938 224.429688 699.632812 230.128906 699.707031 232.152344 C 699.707031 233.203125 698.957031 234.101562 698.359375 234.402344 C 697.757812 234.699219 696.785156 234.625 696.183594 234.25 C 695.660156 233.953125 695.285156 233.203125 695.136719 232.453125 C 694.910156 231.476562 695.0625 229.601562 695.660156 228.855469 C 696.183594 228.253906 697.460938 227.878906 698.132812 228.105469 C 698.808594 228.328125 699.707031 230.128906 699.707031 230.128906 " clip-rule="nonzero"/></clipPath><clipPath id="f19c187c6c"><path d="M 677.679688 256.917969 L 682.78125 256.917969 L 682.78125 268.597656 L 677.679688 268.597656 Z M 677.679688 256.917969 " clip-rule="nonzero"/></clipPath><clipPath id="98abc368bf"><path d="M 681.265625 261.835938 C 682.46875 266.785156 681.71875 266.859375 681.34375 266.636719 C 680.59375 266.1875 679.691406 263.1875 679.691406 262.289062 C 679.691406 261.914062 679.917969 261.464844 680.144531 261.386719 C 680.367188 261.3125 680.894531 261.539062 681.117188 261.914062 C 681.71875 262.585938 681.941406 265.660156 681.867188 266.558594 C 681.792969 266.933594 681.71875 267.234375 681.492188 267.308594 C 681.265625 267.460938 680.816406 267.460938 680.519531 267.160156 C 679.46875 266.1875 677.292969 258.089844 677.894531 257.191406 C 678.117188 256.890625 678.570312 256.890625 678.867188 256.964844 C 679.320312 257.113281 679.617188 257.566406 679.992188 258.164062 C 680.742188 259.589844 682.542969 264.910156 682.015625 265.960938 C 681.71875 266.335938 681.042969 266.558594 680.667969 266.335938 C 679.992188 266.035156 679.242188 263.261719 679.242188 262.4375 C 679.167969 261.988281 679.320312 261.613281 679.542969 261.464844 C 679.691406 261.3125 680.292969 261.386719 680.519531 261.6875 C 680.894531 262.210938 680.742188 265.359375 680.292969 265.660156 C 680.066406 265.8125 679.617188 265.585938 679.394531 265.285156 C 678.867188 264.761719 678.269531 262.4375 678.570312 262.0625 C 678.792969 261.914062 679.46875 261.988281 679.769531 262.289062 C 680.292969 262.8125 680.59375 265.210938 680.292969 265.511719 C 680.066406 265.734375 679.542969 265.660156 679.320312 265.4375 C 678.867188 265.136719 678.34375 264.011719 678.34375 263.488281 C 678.34375 263.113281 678.570312 262.738281 678.792969 262.585938 C 679.019531 262.511719 679.320312 262.511719 679.617188 262.738281 C 680.21875 263.261719 681.042969 266.1875 681.042969 267.011719 C 681.042969 267.386719 680.96875 267.683594 680.742188 267.835938 C 680.519531 267.984375 680.066406 267.910156 679.769531 267.683594 C 679.09375 267.234375 677.96875 264.761719 677.894531 263.863281 C 677.894531 263.488281 678.042969 263.113281 678.269531 262.960938 C 678.492188 262.8125 679.019531 262.960938 679.242188 263.1875 C 679.617188 263.636719 679.242188 265.136719 679.542969 265.960938 C 679.84375 266.636719 680.816406 267.160156 680.816406 267.609375 C 680.894531 267.984375 680.667969 268.433594 680.441406 268.507812 C 680.21875 268.660156 679.691406 268.433594 679.394531 268.132812 C 678.71875 267.308594 678.117188 264.160156 677.96875 262.585938 C 677.894531 261.386719 677.96875 259.964844 678.34375 259.4375 C 678.570312 259.214844 678.945312 258.988281 679.167969 259.0625 C 679.394531 259.140625 679.84375 259.8125 679.769531 260.039062 C 679.617188 260.261719 678.492188 260.414062 678.417969 260.261719 C 678.269531 260.039062 678.867188 259.0625 679.09375 259.0625 C 679.691406 259.140625 681.492188 266.933594 680.894531 267.984375 C 680.667969 268.433594 679.992188 268.585938 679.617188 268.433594 C 679.019531 268.210938 678.195312 266.558594 677.894531 265.660156 C 677.667969 264.910156 677.59375 263.785156 677.894531 263.335938 C 678.117188 263.039062 678.644531 262.8125 678.945312 262.960938 C 679.691406 263.261719 681.34375 267.011719 680.96875 267.535156 C 680.816406 267.835938 680.144531 267.910156 679.769531 267.683594 C 679.09375 267.234375 678.34375 264.3125 678.34375 263.488281 C 678.34375 263.113281 678.417969 262.8125 678.644531 262.664062 C 678.867188 262.511719 679.320312 262.585938 679.617188 262.738281 C 680.066406 263.113281 680.667969 265.0625 680.441406 265.4375 C 680.292969 265.660156 679.691406 265.734375 679.46875 265.585938 C 679.09375 265.359375 678.867188 264.535156 678.644531 264.011719 C 678.492188 263.410156 678.269531 262.585938 678.492188 262.210938 C 678.644531 261.988281 679.242188 261.835938 679.542969 261.988281 C 680.144531 262.363281 680.96875 264.835938 680.667969 265.285156 C 680.519531 265.585938 679.84375 265.734375 679.617188 265.585938 C 679.320312 265.4375 679.167969 264.910156 679.09375 264.386719 C 679.09375 263.636719 679.46875 261.386719 679.84375 261.386719 C 680.367188 261.3125 682.167969 265.136719 682.015625 265.960938 C 681.941406 266.335938 681.492188 266.636719 681.265625 266.636719 C 681.042969 266.636719 680.816406 266.484375 680.519531 266.1875 C 679.769531 265.136719 677.292969 257.863281 677.894531 257.191406 C 678.117188 256.890625 678.792969 256.964844 679.167969 257.265625 C 679.992188 257.941406 680.59375 261.539062 681.117188 263.335938 C 681.417969 264.613281 682.167969 266.1875 681.867188 266.710938 C 681.640625 267.085938 680.816406 267.308594 680.519531 267.160156 C 679.917969 266.785156 679.617188 264.613281 679.617188 263.5625 C 679.617188 262.738281 679.769531 261.613281 680.144531 261.386719 C 680.367188 261.3125 680.742188 261.464844 681.042969 261.6875 C 681.71875 262.363281 683.066406 265.734375 682.691406 266.410156 C 682.542969 266.785156 681.792969 266.933594 681.417969 266.785156 C 680.816406 266.410156 680.292969 264.160156 680.066406 263.1875 C 679.917969 262.585938 679.691406 261.761719 679.917969 261.613281 C 680.144531 261.386719 681.265625 261.835938 681.265625 261.835938 " clip-rule="nonzero"/></clipPath><clipPath id="d1f87c620e"><path d="M 679.144531 264.46875 L 681.59375 264.46875 L 681.59375 271.074219 L 679.144531 271.074219 Z M 679.144531 264.46875 " clip-rule="nonzero"/></clipPath><clipPath id="a6b3f470f6"><path d="M 681.492188 267.910156 C 681.34375 269.632812 680.96875 269.632812 680.816406 269.484375 C 680.292969 269.035156 680.066406 265.0625 679.917969 265.0625 C 679.769531 265.0625 680.59375 270.160156 680.066406 270.757812 C 679.917969 270.984375 679.46875 270.984375 679.320312 270.832031 C 678.945312 270.457031 679.242188 267.011719 679.617188 266.636719 C 679.84375 266.484375 680.144531 266.558594 680.292969 266.636719 C 680.519531 266.859375 680.441406 268.359375 680.441406 268.359375 C 680.441406 268.359375 680.144531 266.109375 680.441406 265.8125 C 680.59375 265.734375 681.191406 265.960938 681.191406 266.035156 C 681.191406 266.035156 680.441406 265.960938 680.441406 265.886719 C 680.441406 265.8125 680.96875 265.585938 681.117188 265.734375 C 681.417969 265.960938 681.265625 267.609375 681.191406 268.285156 C 681.042969 268.660156 680.96875 269.183594 680.667969 269.257812 C 680.441406 269.335938 679.917969 269.109375 679.769531 268.808594 C 679.46875 268.359375 679.542969 266.636719 679.769531 266.558594 C 679.917969 266.484375 680.292969 266.710938 680.441406 267.011719 C 680.742188 267.609375 680.519531 269.707031 680.21875 270.382812 C 680.066406 270.757812 679.617188 271.132812 679.46875 271.058594 C 679.320312 270.984375 679.242188 270.308594 679.242188 269.707031 C 679.167969 268.585938 679.09375 265.285156 679.617188 264.6875 C 679.769531 264.460938 680.066406 264.460938 680.292969 264.535156 C 680.742188 264.761719 681.117188 266.109375 681.265625 266.933594 C 681.492188 267.683594 681.71875 269.035156 681.492188 269.410156 C 681.34375 269.558594 680.894531 269.632812 680.816406 269.484375 C 680.59375 269.257812 680.59375 267.910156 680.816406 267.761719 C 680.96875 267.609375 681.492188 267.910156 681.492188 267.910156 " clip-rule="nonzero"/></clipPath><clipPath id="2affaace0b"><path d="M 714 239 L 795 239 L 795 304 L 714 304 Z M 714 239 " clip-rule="nonzero"/></clipPath><clipPath id="40ba3a67ab"><path d="M 726.765625 189.660156 L 836.917969 263.628906 L 785.515625 340.175781 L 675.363281 266.207031 Z M 726.765625 189.660156 " clip-rule="nonzero"/></clipPath><clipPath id="102ae113b4"><path d="M 726.765625 189.660156 L 836.917969 263.628906 L 785.515625 340.175781 L 675.363281 266.207031 Z M 726.765625 189.660156 " clip-rule="nonzero"/></clipPath><clipPath id="d669bbaa62"><path d="M 726.765625 189.660156 L 836.917969 263.628906 L 785.515625 340.175781 L 675.363281 266.207031 Z M 726.765625 189.660156 " clip-rule="nonzero"/></clipPath><clipPath id="a5eb8efd39"><path d="M 678 209 L 825 209 L 825 285 L 678 285 Z M 678 209 " clip-rule="nonzero"/></clipPath><clipPath id="fc491036df"><path d="M 726.765625 189.660156 L 836.917969 263.628906 L 785.515625 340.175781 L 675.363281 266.207031 Z M 726.765625 189.660156 " clip-rule="nonzero"/></clipPath><clipPath id="f69f167b3b"><path d="M 726.765625 189.660156 L 836.917969 263.628906 L 785.515625 340.175781 L 675.363281 266.207031 Z M 726.765625 189.660156 " clip-rule="nonzero"/></clipPath><clipPath id="09e79e4edf"><path d="M 726.765625 189.660156 L 836.917969 263.628906 L 785.515625 340.175781 L 675.363281 266.207031 Z M 726.765625 189.660156 " clip-rule="nonzero"/></clipPath></defs><g fill="#000000" fill-opacity="1"><g transform="translate(235.949211, 309.568562)"><g><path d="M 31.515625 1.21875 C 27.804688 1.21875 23.925781 0.289062 19.875 -1.5625 C 15.832031 -3.414062 12.175781 -6.644531 8.90625 -11.25 L 11.359375 -12.921875 C 13.660156 -9.648438 16.332031 -7.066406 19.375 -5.171875 C 22.414062 -3.285156 25.53125 -2.117188 28.71875 -1.671875 C 31.914062 -1.222656 34.941406 -1.425781 37.796875 -2.28125 C 40.660156 -3.132812 43.113281 -4.675781 45.15625 -6.90625 C 47.195312 -9.132812 48.515625 -11.992188 49.109375 -15.484375 C 49.847656 -19.640625 48.695312 -23.609375 45.65625 -27.390625 C 42.613281 -31.179688 38.457031 -34.226562 33.1875 -36.53125 C 32.882812 -36.675781 32.582031 -36.84375 32.28125 -37.03125 C 31.988281 -37.21875 31.660156 -37.347656 31.296875 -37.421875 C 29.585938 -38.234375 27.546875 -39.269531 25.171875 -40.53125 C 22.796875 -41.789062 20.472656 -43.367188 18.203125 -45.265625 C 15.941406 -47.160156 14.066406 -49.425781 12.578125 -52.0625 C 11.097656 -54.695312 10.394531 -57.722656 10.46875 -61.140625 C 10.539062 -64.398438 11.46875 -67.3125 13.25 -69.875 C 15.03125 -72.4375 17.347656 -74.570312 20.203125 -76.28125 C 23.066406 -77.988281 26.09375 -79.140625 29.28125 -79.734375 C 33.289062 -80.546875 36.835938 -80.5625 39.921875 -79.78125 C 43.003906 -79.007812 45.582031 -77.769531 47.65625 -76.0625 C 49.738281 -74.351562 51.222656 -72.421875 52.109375 -70.265625 L 49.328125 -69.046875 C 47.992188 -72.160156 46.101562 -74.421875 43.65625 -75.828125 C 41.207031 -77.242188 38.535156 -77.929688 35.640625 -77.890625 C 32.742188 -77.859375 29.976562 -77.15625 27.34375 -75.78125 C 24.707031 -74.40625 22.515625 -72.453125 20.765625 -69.921875 C 19.023438 -67.398438 18.078125 -64.394531 17.921875 -60.90625 C 17.847656 -57.269531 19.332031 -54.191406 22.375 -51.671875 C 25.425781 -49.148438 29.472656 -46.703125 34.515625 -44.328125 C 35.109375 -43.953125 35.703125 -43.65625 36.296875 -43.4375 C 38.671875 -42.320312 41.140625 -41.09375 43.703125 -39.75 C 46.265625 -38.414062 48.601562 -36.78125 50.71875 -34.84375 C 52.832031 -32.914062 54.460938 -30.632812 55.609375 -28 C 56.765625 -25.363281 57.085938 -22.226562 56.578125 -18.59375 C 55.972656 -14.0625 53.984375 -10.085938 50.609375 -6.671875 C 47.234375 -3.265625 43.019531 -0.890625 37.96875 0.453125 C 36.9375 0.742188 35.953125 0.925781 35.015625 1 C 34.085938 1.070312 32.921875 1.144531 31.515625 1.21875 Z M 31.515625 1.21875 "/></g></g></g><g fill="#000000" fill-opacity="1"><g transform="translate(301.649158, 309.568562)"><g><path d="M 11.140625 0 L 11.140625 -79.953125 L 18.59375 -79.953125 L 18.59375 -35.859375 L 54.125 -79.953125 L 58.015625 -79.953125 L 26.0625 -40.3125 L 60.578125 0 L 51.78125 0 L 21.609375 -34.75 L 18.59375 -31.0625 L 18.59375 0 Z M 11.140625 0 "/></g></g></g><g fill="#000000" fill-opacity="1"><g transform="translate(373.362328, 309.568562)"><g><path d="M 11.140625 0 L 11.140625 -79.953125 L 18.703125 -79.953125 L 18.703125 0 Z M 11.140625 0 "/></g></g></g><g fill="#000000" fill-opacity="1"><g transform="translate(403.317049, 309.568562)"><g><path d="M 11.140625 0 L 11.140625 -79.953125 L 18.703125 -79.953125 L 18.703125 -3 L 58.578125 -3 L 58.578125 0 Z M 11.140625 0 "/></g></g></g><g fill="#000000" fill-opacity="1"><g transform="translate(473.025805, 309.568562)"><g><path d="M 11.140625 0 L 11.140625 -79.953125 L 18.703125 -79.953125 L 18.703125 -3 L 58.578125 -3 L 58.578125 0 Z M 11.140625 0 "/></g></g></g><g fill="#000000" fill-opacity="1"><g transform="translate(542.734571, 309.568562)"><g><path d="M 11.140625 0 L 11.140625 -79.953125 L 18.703125 -79.953125 L 18.703125 0 Z M 11.140625 0 "/></g></g></g><g fill="#000000" fill-opacity="1"><g transform="translate(572.689303, 309.568562)"><g><path d="M 11.140625 0 L 11.140625 -79.953125 L 56.34375 -79.953125 L 56.34375 -76.953125 L 18.703125 -76.953125 L 18.703125 -41.875 L 48.78125 -41.875 L 48.78125 -38.859375 L 18.703125 -38.859375 L 18.703125 0 Z M 11.140625 0 "/></g></g></g><g fill="#000000" fill-opacity="1"><g transform="translate(640.170923, 309.568562)"><g><path d="M 31.625 0 L 31.625 -39.203125 L 11.140625 -79.953125 L 19.59375 -79.953125 L 37.96875 -43.4375 L 56.453125 -79.953125 L 59.796875 -79.953125 L 39.203125 -39.203125 L 39.203125 0 Z M 31.625 0 "/></g></g></g><path stroke-linecap="butt" transform="matrix(0.749517, 0.0132675, -0.0132675, 0.749517, 236.116767, 257.800881)" fill="none" stroke-linejoin="miter" d="M -0.00062424 6.99918 L 144.550863 6.999354 " stroke="#ffffff" stroke-width="14" stroke-opacity="1" stroke-miterlimit="4"/><g clip-path="url(#8ff10603a1)"><g clip-path="url(#ad8713d8ea)"><path fill="#ffffff" d="M 676.621094 211.988281 L 711.550781 211.988281 L 711.550781 270.117188 L 676.621094 270.117188 Z M 676.621094 211.988281 " fill-opacity="1" fill-rule="nonzero"/></g></g><g clip-path="url(#f19c187c6c)"><g clip-path="url(#98abc368bf)"><path fill="#ffffff" d="M 674.894531 253.964844 L 685.691406 253.964844 L 685.691406 271.59375 L 674.894531 271.59375 Z M 674.894531 253.964844 " fill-opacity="1" fill-rule="nonzero"/></g></g><g clip-path="url(#d1f87c620e)"><g clip-path="url(#a6b3f470f6)"><path fill="#ffffff" d="M 676.246094 261.539062 L 684.492188 261.539062 L 684.492188 274.066406 L 676.246094 274.066406 Z M 676.246094 261.539062 " fill-opacity="1" fill-rule="nonzero"/></g></g><g clip-path="url(#2affaace0b)"><g clip-path="url(#40ba3a67ab)"><g clip-path="url(#102ae113b4)"><g clip-path="url(#d669bbaa62)"><path fill="#000000" d="M 752.640625 272.464844 C 751.949219 272 751.339844 271.433594 750.808594 270.757812 L 726.425781 239.117188 C 724.859375 240.21875 723.289062 241.945312 721.410156 244.738281 C 722.664062 247.308594 723.054688 251.050781 720.28125 255.179688 C 718.582031 257.710938 716.097656 258.683594 714.199219 259.164062 C 715.21875 267.726562 725.433594 280.253906 740.585938 290.425781 C 759.671875 303.246094 779.304688 307.433594 784.429688 299.804688 C 785.5625 298.117188 790.183594 291.230469 794.726562 284.472656 L 754.90625 273.507812 C 754.085938 273.277344 753.332031 272.929688 752.640625 272.464844 Z M 752.640625 272.464844 " fill-opacity="1" fill-rule="nonzero"/></g></g></g></g><g clip-path="url(#a5eb8efd39)"><g clip-path="url(#fc491036df)"><g clip-path="url(#f69f167b3b)"><g clip-path="url(#09e79e4edf)"><path fill="#000000" d="M 823.488281 280.4375 L 783.292969 228.292969 C 782.941406 227.84375 782.46875 227.53125 781.925781 227.378906 L 718.449219 209.902344 C 717.371094 209.605469 716.21875 210.035156 715.59375 210.964844 C 714.964844 211.898438 715.007812 213.125 715.691406 214.011719 L 724.90625 225.964844 C 720.035156 227.308594 715.433594 230.726562 709.949219 237.632812 C 707.472656 237.261719 704.875 238.265625 703.378906 240.492188 C 701.859375 242.757812 701.917969 245.597656 703.269531 247.769531 C 691.671875 261.390625 679.558594 260.394531 678.714844 261.65625 C 678.28125 262.296875 682.625 270.570312 684.242188 271.65625 C 686.75 273.339844 695.625 273.113281 701.808594 263.902344 C 705.453125 258.476562 707.71875 254.050781 709.15625 250.796875 C 711.222656 250.71875 713.234375 249.800781 714.480469 247.945312 C 715.839844 245.921875 715.847656 243.476562 714.890625 241.417969 C 723.890625 229.988281 728.953125 230.464844 740.4375 232.757812 C 741.578125 233.003906 743.738281 233.457031 744.992188 233.707031 C 747.242188 234.160156 749.273438 234.582031 751.214844 234.992188 C 757.472656 236.339844 762.707031 237.5625 766.679688 238.527344 C 771.003906 239.617188 772.875 240.214844 772.941406 240.234375 C 774.578125 240.679688 775.578125 242.402344 775.121094 244.074219 C 774.660156 245.738281 772.945312 246.726562 771.277344 246.269531 C 771.148438 246.234375 763.917969 243.902344 743.742188 239.847656 C 742.445312 239.585938 741.222656 239.316406 740.058594 239.066406 C 737.691406 238.550781 735.738281 238.101562 734.039062 237.828125 L 755.882812 266.160156 C 756.0625 266.378906 756.261719 266.570312 756.492188 266.726562 C 756.726562 266.882812 756.976562 266.996094 757.25 267.070312 L 820.730469 284.546875 C 821.808594 284.84375 822.960938 284.417969 823.585938 283.484375 C 824.210938 282.554688 824.171875 281.324219 823.488281 280.4375 Z M 823.488281 280.4375 " fill-opacity="1" fill-rule="nonzero"/></g></g></g></g><g fill="#000000" fill-opacity="1"><g transform="translate(283.69903, 353.205642)"><g><path d="M 2.203125 0 L 2.203125 -15.78125 L 3.90625 -15.78125 L 11.46875 -2.953125 L 11.46875 -15.78125 L 12.0625 -15.78125 L 12.0625 0 L 11.46875 0 L 11.46875 -0.015625 L 2.796875 -14.78125 L 2.796875 0 Z M 2.203125 0 "/></g></g></g><g fill="#000000" fill-opacity="1"><g transform="translate(297.967518, 353.205642)"><g><path d="M 2.203125 0 L 7.03125 -15.765625 L 7.03125 -15.78125 L 8.59375 -15.78125 L 13.453125 0 L 11.890625 0 L 10.65625 -4.046875 L 4.0625 -4.046875 L 2.8125 0 Z M 4.25 -4.640625 L 10.46875 -4.640625 L 7.359375 -14.75 Z M 4.25 -4.640625 "/></g></g></g><g fill="#000000" fill-opacity="1"><g transform="translate(313.643068, 353.205642)"><g><path d="M 7.1875 0 L 2.203125 -15.78125 L 3.765625 -15.78125 L 8.421875 -1.0625 L 13.0625 -15.78125 L 13.671875 -15.78125 L 8.75 0 Z M 7.1875 0 "/></g></g></g><g fill="#000000" fill-opacity="1"><g transform="translate(329.516492, 353.205642)"><g><path d="M 2.203125 0 L 2.203125 -15.78125 L 3.6875 -15.78125 L 3.6875 0 Z M 2.203125 0 "/></g></g></g><g fill="#000000" fill-opacity="1"><g transform="translate(335.430556, 353.205642)"><g><path d="M 8.59375 0.265625 C 7.65625 0.265625 6.769531 0.0546875 5.9375 -0.359375 C 5.113281 -0.773438 4.390625 -1.351562 3.765625 -2.09375 C 3.148438 -2.832031 2.660156 -3.6875 2.296875 -4.65625 C 1.941406 -5.625 1.765625 -6.664062 1.765625 -7.78125 C 1.765625 -8.894531 1.941406 -9.9375 2.296875 -10.90625 C 2.660156 -11.875 3.148438 -12.726562 3.765625 -13.46875 C 4.390625 -14.207031 5.113281 -14.785156 5.9375 -15.203125 C 6.769531 -15.617188 7.65625 -15.828125 8.59375 -15.828125 C 9.40625 -15.828125 10.195312 -15.628906 10.96875 -15.234375 C 11.75 -14.835938 12.4375 -14.273438 13.03125 -13.546875 L 12.578125 -13.171875 C 12.035156 -13.816406 11.421875 -14.320312 10.734375 -14.6875 C 10.054688 -15.050781 9.34375 -15.234375 8.59375 -15.234375 C 7.863281 -15.234375 7.175781 -15.015625 6.53125 -14.578125 C 5.882812 -14.148438 5.316406 -13.578125 4.828125 -12.859375 C 4.335938 -12.140625 3.953125 -11.335938 3.671875 -10.453125 C 3.390625 -9.578125 3.25 -8.6875 3.25 -7.78125 C 3.25 -6.84375 3.394531 -5.914062 3.6875 -5 C 3.988281 -4.082031 4.40625 -3.257812 4.9375 -2.53125 C 5.46875 -1.8125 6.101562 -1.253906 6.84375 -0.859375 C 7.582031 -0.460938 8.410156 -0.316406 9.328125 -0.421875 C 9.847656 -0.492188 10.289062 -0.644531 10.65625 -0.875 C 11.03125 -1.113281 11.328125 -1.367188 11.546875 -1.640625 C 11.773438 -1.910156 11.941406 -2.140625 12.046875 -2.328125 C 12.160156 -2.515625 12.21875 -2.609375 12.21875 -2.609375 L 12.21875 -7.46875 L 10.21875 -7.46875 L 10.21875 -8.0625 L 13.71875 -8.0625 L 13.71875 -3.125 C 13.46875 -2.414062 13.078125 -1.804688 12.546875 -1.296875 C 12.023438 -0.796875 11.414062 -0.414062 10.71875 -0.15625 C 10.03125 0.101562 9.320312 0.242188 8.59375 0.265625 Z M 8.59375 0.265625 "/></g></g></g><g fill="#000000" fill-opacity="1"><g transform="translate(351.34795, 353.205642)"><g><path d="M 2.203125 0 L 7.03125 -15.765625 L 7.03125 -15.78125 L 8.59375 -15.78125 L 13.453125 0 L 11.890625 0 L 10.65625 -4.046875 L 4.0625 -4.046875 L 2.8125 0 Z M 4.25 -4.640625 L 10.46875 -4.640625 L 7.359375 -14.75 Z M 4.25 -4.640625 "/></g></g></g><g fill="#000000" fill-opacity="1"><g transform="translate(367.0235, 353.205642)"><g><path d="M 6.203125 0 L 6.203125 -15.1875 L 2.203125 -15.1875 L 2.203125 -15.78125 L 11.703125 -15.78125 L 11.703125 -15.1875 L 7.6875 -15.1875 L 7.6875 0 Z M 6.203125 0 "/></g></g></g><g fill="#000000" fill-opacity="1"><g transform="translate(380.918245, 353.205642)"><g><path d="M 2.203125 0 L 2.203125 -15.78125 L 11.125 -15.78125 L 11.125 -15.1875 L 3.6875 -15.1875 L 3.6875 -8.28125 L 9.65625 -8.28125 L 9.65625 -7.6875 L 3.6875 -7.6875 L 3.6875 -0.59375 L 11.578125 -0.59375 L 11.578125 0 Z M 2.203125 0 "/></g></g></g><g fill="#000000" fill-opacity="1"><g transform="translate(394.703056, 353.205642)"><g/></g></g><g fill="#000000" fill-opacity="1"><g transform="translate(406.355293, 353.205642)"><g><path d="M 8.375 0.234375 C 7.4375 0.234375 6.5625 0.0234375 5.75 -0.390625 C 4.945312 -0.804688 4.242188 -1.382812 3.640625 -2.125 C 3.046875 -2.863281 2.582031 -3.71875 2.25 -4.6875 C 1.925781 -5.65625 1.765625 -6.691406 1.765625 -7.796875 C 1.765625 -8.910156 1.925781 -9.953125 2.25 -10.921875 C 2.582031 -11.890625 3.046875 -12.742188 3.640625 -13.484375 C 4.242188 -14.222656 4.945312 -14.800781 5.75 -15.21875 C 6.5625 -15.632812 7.4375 -15.84375 8.375 -15.84375 C 9.175781 -15.832031 9.96875 -15.628906 10.75 -15.234375 C 11.53125 -14.847656 12.210938 -14.289062 12.796875 -13.5625 L 12.328125 -13.1875 C 11.785156 -13.832031 11.171875 -14.335938 10.484375 -14.703125 C 9.804688 -15.066406 9.101562 -15.25 8.375 -15.25 C 7.625 -15.25 6.9375 -15.03125 6.3125 -14.59375 C 5.695312 -14.164062 5.15625 -13.59375 4.6875 -12.875 C 4.226562 -12.164062 3.867188 -11.367188 3.609375 -10.484375 C 3.359375 -9.609375 3.234375 -8.710938 3.234375 -7.796875 C 3.234375 -6.890625 3.359375 -5.992188 3.609375 -5.109375 C 3.867188 -4.234375 4.226562 -3.4375 4.6875 -2.71875 C 5.15625 -2.007812 5.695312 -1.4375 6.3125 -1 C 6.9375 -0.570312 7.625 -0.359375 8.375 -0.359375 C 9.414062 -0.359375 10.367188 -0.691406 11.234375 -1.359375 C 12.109375 -2.035156 12.789062 -2.882812 13.28125 -3.90625 L 13.828125 -3.671875 C 13.242188 -2.453125 12.46875 -1.5 11.5 -0.8125 C 10.539062 -0.125 9.5 0.222656 8.375 0.234375 Z M 8.375 0.234375 "/></g></g></g><g fill="#000000" fill-opacity="1"><g transform="translate(421.942904, 353.205642)"><g><path d="M 2.203125 0 L 7.03125 -15.765625 L 7.03125 -15.78125 L 8.59375 -15.78125 L 13.453125 0 L 11.890625 0 L 10.65625 -4.046875 L 4.0625 -4.046875 L 2.8125 0 Z M 4.25 -4.640625 L 10.46875 -4.640625 L 7.359375 -14.75 Z M 4.25 -4.640625 "/></g></g></g><g fill="#000000" fill-opacity="1"><g transform="translate(437.618453, 353.205642)"><g><path d="M 2.203125 0 L 2.203125 -15.78125 L 7.734375 -15.78125 C 8.453125 -15.78125 9.132812 -15.609375 9.78125 -15.265625 C 10.425781 -14.921875 10.945312 -14.445312 11.34375 -13.84375 C 11.75 -13.25 11.953125 -12.546875 11.953125 -11.734375 C 11.953125 -10.960938 11.75 -10.265625 11.34375 -9.640625 C 10.945312 -9.015625 10.421875 -8.519531 9.765625 -8.15625 C 9.117188 -7.800781 8.425781 -7.625 7.6875 -7.625 L 13.125 0 L 11.5 0 L 6.046875 -7.625 L 3.671875 -7.625 L 3.671875 0 Z M 3.671875 -8.21875 L 7.453125 -8.21875 C 8.003906 -8.21875 8.507812 -8.394531 8.96875 -8.75 C 9.425781 -9.101562 9.789062 -9.550781 10.0625 -10.09375 C 10.332031 -10.632812 10.46875 -11.179688 10.46875 -11.734375 C 10.46875 -12.296875 10.332031 -12.835938 10.0625 -13.359375 C 9.789062 -13.890625 9.425781 -14.328125 8.96875 -14.671875 C 8.507812 -15.015625 8.003906 -15.1875 7.453125 -15.1875 L 3.671875 -15.1875 Z M 3.671875 -8.21875 "/></g></g></g><g fill="#000000" fill-opacity="1"><g transform="translate(452.942246, 353.205642)"><g><path d="M 2.203125 0 L 2.203125 -15.78125 L 11.125 -15.78125 L 11.125 -15.1875 L 3.6875 -15.1875 L 3.6875 -8.28125 L 9.65625 -8.28125 L 9.65625 -7.6875 L 3.6875 -7.6875 L 3.6875 -0.59375 L 11.578125 -0.59375 L 11.578125 0 Z M 2.203125 0 "/></g></g></g><g fill="#000000" fill-opacity="1"><g transform="translate(466.727056, 353.205642)"><g><path d="M 2.203125 0 L 2.203125 -15.78125 L 11.125 -15.78125 L 11.125 -15.1875 L 3.6875 -15.1875 L 3.6875 -8.28125 L 9.65625 -8.28125 L 9.65625 -7.6875 L 3.6875 -7.6875 L 3.6875 -0.59375 L 11.578125 -0.59375 L 11.578125 0 Z M 2.203125 0 "/></g></g></g><g fill="#000000" fill-opacity="1"><g transform="translate(480.511866, 353.205642)"><g><path d="M 2.203125 0 L 2.203125 -15.78125 L 7.734375 -15.78125 C 8.453125 -15.78125 9.132812 -15.609375 9.78125 -15.265625 C 10.425781 -14.921875 10.945312 -14.445312 11.34375 -13.84375 C 11.75 -13.25 11.953125 -12.546875 11.953125 -11.734375 C 11.953125 -10.960938 11.75 -10.265625 11.34375 -9.640625 C 10.945312 -9.015625 10.421875 -8.519531 9.765625 -8.15625 C 9.117188 -7.800781 8.425781 -7.625 7.6875 -7.625 L 13.125 0 L 11.5 0 L 6.046875 -7.625 L 3.671875 -7.625 L 3.671875 0 Z M 3.671875 -8.21875 L 7.453125 -8.21875 C 8.003906 -8.21875 8.507812 -8.394531 8.96875 -8.75 C 9.425781 -9.101562 9.789062 -9.550781 10.0625 -10.09375 C 10.332031 -10.632812 10.46875 -11.179688 10.46875 -11.734375 C 10.46875 -12.296875 10.332031 -12.835938 10.0625 -13.359375 C 9.789062 -13.890625 9.425781 -14.328125 8.96875 -14.671875 C 8.507812 -15.015625 8.003906 -15.1875 7.453125 -15.1875 L 3.671875 -15.1875 Z M 3.671875 -8.21875 "/></g></g></g><g fill="#000000" fill-opacity="1"><g transform="translate(495.835648, 353.205642)"><g><path d="M 6.21875 0.234375 C 5.488281 0.234375 4.722656 0.0507812 3.921875 -0.3125 C 3.117188 -0.675781 2.398438 -1.3125 1.765625 -2.21875 L 2.25 -2.546875 C 2.695312 -1.898438 3.222656 -1.390625 3.828125 -1.015625 C 4.429688 -0.648438 5.046875 -0.421875 5.671875 -0.328125 C 6.304688 -0.242188 6.90625 -0.285156 7.46875 -0.453125 C 8.03125 -0.617188 8.507812 -0.921875 8.90625 -1.359375 C 9.3125 -1.796875 9.570312 -2.363281 9.6875 -3.0625 C 9.84375 -3.875 9.617188 -4.65625 9.015625 -5.40625 C 8.410156 -6.15625 7.585938 -6.753906 6.546875 -7.203125 C 6.492188 -7.234375 6.4375 -7.265625 6.375 -7.296875 C 6.3125 -7.335938 6.242188 -7.367188 6.171875 -7.390625 C 5.835938 -7.546875 5.4375 -7.75 4.96875 -8 C 4.5 -8.25 4.039062 -8.5625 3.59375 -8.9375 C 3.144531 -9.3125 2.773438 -9.757812 2.484375 -10.28125 C 2.191406 -10.800781 2.050781 -11.394531 2.0625 -12.0625 C 2.082031 -12.707031 2.265625 -13.28125 2.609375 -13.78125 C 2.960938 -14.289062 3.421875 -14.710938 3.984375 -15.046875 C 4.554688 -15.390625 5.15625 -15.617188 5.78125 -15.734375 C 6.570312 -15.898438 7.269531 -15.90625 7.875 -15.75 C 8.488281 -15.59375 9 -15.347656 9.40625 -15.015625 C 9.820312 -14.679688 10.113281 -14.300781 10.28125 -13.875 L 9.734375 -13.625 C 9.472656 -14.238281 9.097656 -14.6875 8.609375 -14.96875 C 8.128906 -15.25 7.601562 -15.382812 7.03125 -15.375 C 6.457031 -15.363281 5.910156 -15.222656 5.390625 -14.953125 C 4.867188 -14.679688 4.4375 -14.296875 4.09375 -13.796875 C 3.75 -13.304688 3.566406 -12.71875 3.546875 -12.03125 C 3.523438 -11.3125 3.8125 -10.703125 4.40625 -10.203125 C 5.007812 -9.703125 5.8125 -9.21875 6.8125 -8.75 C 6.925781 -8.675781 7.046875 -8.617188 7.171875 -8.578125 C 7.640625 -8.359375 8.125 -8.113281 8.625 -7.84375 C 9.132812 -7.582031 9.597656 -7.257812 10.015625 -6.875 C 10.429688 -6.5 10.753906 -6.050781 10.984375 -5.53125 C 11.210938 -5.007812 11.273438 -4.390625 11.171875 -3.671875 C 11.046875 -2.773438 10.648438 -1.988281 9.984375 -1.3125 C 9.316406 -0.644531 8.488281 -0.175781 7.5 0.09375 C 7.289062 0.144531 7.09375 0.175781 6.90625 0.1875 C 6.726562 0.207031 6.5 0.222656 6.21875 0.234375 Z M 6.21875 0.234375 "/></g></g></g><g fill="#000000" fill-opacity="1"><g transform="translate(508.807009, 353.205642)"><g><path d="M 0.5 2 L 0 1.71875 L 1.203125 -1.609375 L 2.5 -0.875 Z M 0.5 2 "/></g></g></g><g fill="#000000" fill-opacity="1"><g transform="translate(511.313323, 353.205642)"><g/></g></g><g fill="#000000" fill-opacity="1"><g transform="translate(522.965549, 353.205642)"><g><path d="M 2.203125 0 L 2.203125 -15.78125 L 3.6875 -15.78125 L 3.6875 -0.59375 L 11.5625 -0.59375 L 11.5625 0 Z M 2.203125 0 "/></g></g></g><g fill="#000000" fill-opacity="1"><g transform="translate(536.728363, 353.205642)"><g><path d="M 2.203125 0 L 2.203125 -15.78125 L 11.125 -15.78125 L 11.125 -15.1875 L 3.6875 -15.1875 L 3.6875 -8.28125 L 9.65625 -8.28125 L 9.65625 -7.6875 L 3.6875 -7.6875 L 3.6875 -0.59375 L 11.578125 -0.59375 L 11.578125 0 Z M 2.203125 0 "/></g></g></g><g fill="#000000" fill-opacity="1"><g transform="translate(550.513184, 353.205642)"><g><path d="M 2.203125 0 L 7.03125 -15.765625 L 7.03125 -15.78125 L 8.59375 -15.78125 L 13.453125 0 L 11.890625 0 L 10.65625 -4.046875 L 4.0625 -4.046875 L 2.8125 0 Z M 4.25 -4.640625 L 10.46875 -4.640625 L 7.359375 -14.75 Z M 4.25 -4.640625 "/></g></g></g><g fill="#000000" fill-opacity="1"><g transform="translate(566.188746, 353.205642)"><g><path d="M 2.203125 0 L 2.203125 -15.78125 L 7.734375 -15.78125 C 8.453125 -15.78125 9.132812 -15.609375 9.78125 -15.265625 C 10.425781 -14.921875 10.945312 -14.445312 11.34375 -13.84375 C 11.75 -13.25 11.953125 -12.546875 11.953125 -11.734375 C 11.953125 -10.960938 11.75 -10.265625 11.34375 -9.640625 C 10.945312 -9.015625 10.421875 -8.519531 9.765625 -8.15625 C 9.117188 -7.800781 8.425781 -7.625 7.6875 -7.625 L 13.125 0 L 11.5 0 L 6.046875 -7.625 L 3.671875 -7.625 L 3.671875 0 Z M 3.671875 -8.21875 L 7.453125 -8.21875 C 8.003906 -8.21875 8.507812 -8.394531 8.96875 -8.75 C 9.425781 -9.101562 9.789062 -9.550781 10.0625 -10.09375 C 10.332031 -10.632812 10.46875 -11.179688 10.46875 -11.734375 C 10.46875 -12.296875 10.332031 -12.835938 10.0625 -13.359375 C 9.789062 -13.890625 9.425781 -14.328125 8.96875 -14.671875 C 8.507812 -15.015625 8.003906 -15.1875 7.453125 -15.1875 L 3.671875 -15.1875 Z M 3.671875 -8.21875 "/></g></g></g><g fill="#000000" fill-opacity="1"><g transform="translate(581.51255, 353.205642)"><g><path d="M 2.203125 0 L 2.203125 -15.78125 L 3.90625 -15.78125 L 11.46875 -2.953125 L 11.46875 -15.78125 L 12.0625 -15.78125 L 12.0625 0 L 11.46875 0 L 11.46875 -0.015625 L 2.796875 -14.78125 L 2.796875 0 Z M 2.203125 0 "/></g></g></g><g fill="#000000" fill-opacity="1"><g transform="translate(595.781038, 353.205642)"><g><path d="M 0.5 2 L 0 1.71875 L 1.203125 -1.609375 L 2.5 -0.875 Z M 0.5 2 "/></g></g></g><g fill="#000000" fill-opacity="1"><g transform="translate(598.287352, 353.205642)"><g/></g></g><g fill="#000000" fill-opacity="1"><g transform="translate(609.939578, 353.205642)"><g><path d="M 6.21875 0.234375 C 5.488281 0.234375 4.722656 0.0507812 3.921875 -0.3125 C 3.117188 -0.675781 2.398438 -1.3125 1.765625 -2.21875 L 2.25 -2.546875 C 2.695312 -1.898438 3.222656 -1.390625 3.828125 -1.015625 C 4.429688 -0.648438 5.046875 -0.421875 5.671875 -0.328125 C 6.304688 -0.242188 6.90625 -0.285156 7.46875 -0.453125 C 8.03125 -0.617188 8.507812 -0.921875 8.90625 -1.359375 C 9.3125 -1.796875 9.570312 -2.363281 9.6875 -3.0625 C 9.84375 -3.875 9.617188 -4.65625 9.015625 -5.40625 C 8.410156 -6.15625 7.585938 -6.753906 6.546875 -7.203125 C 6.492188 -7.234375 6.4375 -7.265625 6.375 -7.296875 C 6.3125 -7.335938 6.242188 -7.367188 6.171875 -7.390625 C 5.835938 -7.546875 5.4375 -7.75 4.96875 -8 C 4.5 -8.25 4.039062 -8.5625 3.59375 -8.9375 C 3.144531 -9.3125 2.773438 -9.757812 2.484375 -10.28125 C 2.191406 -10.800781 2.050781 -11.394531 2.0625 -12.0625 C 2.082031 -12.707031 2.265625 -13.28125 2.609375 -13.78125 C 2.960938 -14.289062 3.421875 -14.710938 3.984375 -15.046875 C 4.554688 -15.390625 5.15625 -15.617188 5.78125 -15.734375 C 6.570312 -15.898438 7.269531 -15.90625 7.875 -15.75 C 8.488281 -15.59375 9 -15.347656 9.40625 -15.015625 C 9.820312 -14.679688 10.113281 -14.300781 10.28125 -13.875 L 9.734375 -13.625 C 9.472656 -14.238281 9.097656 -14.6875 8.609375 -14.96875 C 8.128906 -15.25 7.601562 -15.382812 7.03125 -15.375 C 6.457031 -15.363281 5.910156 -15.222656 5.390625 -14.953125 C 4.867188 -14.679688 4.4375 -14.296875 4.09375 -13.796875 C 3.75 -13.304688 3.566406 -12.71875 3.546875 -12.03125 C 3.523438 -11.3125 3.8125 -10.703125 4.40625 -10.203125 C 5.007812 -9.703125 5.8125 -9.21875 6.8125 -8.75 C 6.925781 -8.675781 7.046875 -8.617188 7.171875 -8.578125 C 7.640625 -8.359375 8.125 -8.113281 8.625 -7.84375 C 9.132812 -7.582031 9.597656 -7.257812 10.015625 -6.875 C 10.429688 -6.5 10.753906 -6.050781 10.984375 -5.53125 C 11.210938 -5.007812 11.273438 -4.390625 11.171875 -3.671875 C 11.046875 -2.773438 10.648438 -1.988281 9.984375 -1.3125 C 9.316406 -0.644531 8.488281 -0.175781 7.5 0.09375 C 7.289062 0.144531 7.09375 0.175781 6.90625 0.1875 C 6.726562 0.207031 6.5 0.222656 6.21875 0.234375 Z M 6.21875 0.234375 "/></g></g></g><g fill="#000000" fill-opacity="1"><g transform="translate(622.910939, 353.205642)"><g><path d="M 7.734375 0.234375 C 6.722656 0.234375 5.796875 0.046875 4.953125 -0.328125 C 4.109375 -0.710938 3.4375 -1.269531 2.9375 -2 C 2.445312 -2.726562 2.203125 -3.625 2.203125 -4.6875 L 2.203125 -15.78125 L 3.671875 -15.78125 L 3.671875 -5.140625 C 3.671875 -4.148438 3.851562 -3.3125 4.21875 -2.625 C 4.582031 -1.945312 5.070312 -1.4375 5.6875 -1.09375 C 6.3125 -0.75 6.992188 -0.578125 7.734375 -0.578125 C 8.484375 -0.578125 9.195312 -0.71875 9.875 -1 C 10.5625 -1.28125 11.125 -1.753906 11.5625 -2.421875 C 12 -3.085938 12.21875 -3.992188 12.21875 -5.140625 L 12.21875 -15.78125 L 12.8125 -15.78125 L 12.8125 -4.640625 C 12.8125 -3.066406 12.34375 -1.859375 11.40625 -1.015625 C 10.46875 -0.179688 9.242188 0.234375 7.734375 0.234375 Z M 7.734375 0.234375 "/></g></g></g><g fill="#000000" fill-opacity="1"><g transform="translate(637.926932, 353.205642)"><g><path d="M 8.375 0.234375 C 7.4375 0.234375 6.5625 0.0234375 5.75 -0.390625 C 4.945312 -0.804688 4.242188 -1.382812 3.640625 -2.125 C 3.046875 -2.863281 2.582031 -3.71875 2.25 -4.6875 C 1.925781 -5.65625 1.765625 -6.691406 1.765625 -7.796875 C 1.765625 -8.910156 1.925781 -9.953125 2.25 -10.921875 C 2.582031 -11.890625 3.046875 -12.742188 3.640625 -13.484375 C 4.242188 -14.222656 4.945312 -14.800781 5.75 -15.21875 C 6.5625 -15.632812 7.4375 -15.84375 8.375 -15.84375 C 9.175781 -15.832031 9.96875 -15.628906 10.75 -15.234375 C 11.53125 -14.847656 12.210938 -14.289062 12.796875 -13.5625 L 12.328125 -13.1875 C 11.785156 -13.832031 11.171875 -14.335938 10.484375 -14.703125 C 9.804688 -15.066406 9.101562 -15.25 8.375 -15.25 C 7.625 -15.25 6.9375 -15.03125 6.3125 -14.59375 C 5.695312 -14.164062 5.15625 -13.59375 4.6875 -12.875 C 4.226562 -12.164062 3.867188 -11.367188 3.609375 -10.484375 C 3.359375 -9.609375 3.234375 -8.710938 3.234375 -7.796875 C 3.234375 -6.890625 3.359375 -5.992188 3.609375 -5.109375 C 3.867188 -4.234375 4.226562 -3.4375 4.6875 -2.71875 C 5.15625 -2.007812 5.695312 -1.4375 6.3125 -1 C 6.9375 -0.570312 7.625 -0.359375 8.375 -0.359375 C 9.414062 -0.359375 10.367188 -0.691406 11.234375 -1.359375 C 12.109375 -2.035156 12.789062 -2.882812 13.28125 -3.90625 L 13.828125 -3.671875 C 13.242188 -2.453125 12.46875 -1.5 11.5 -0.8125 C 10.539062 -0.125 9.5 0.222656 8.375 0.234375 Z M 8.375 0.234375 "/></g></g></g><g fill="#000000" fill-opacity="1"><g transform="translate(653.514532, 353.205642)"><g><path d="M 8.375 0.234375 C 7.4375 0.234375 6.5625 0.0234375 5.75 -0.390625 C 4.945312 -0.804688 4.242188 -1.382812 3.640625 -2.125 C 3.046875 -2.863281 2.582031 -3.71875 2.25 -4.6875 C 1.925781 -5.65625 1.765625 -6.691406 1.765625 -7.796875 C 1.765625 -8.910156 1.925781 -9.953125 2.25 -10.921875 C 2.582031 -11.890625 3.046875 -12.742188 3.640625 -13.484375 C 4.242188 -14.222656 4.945312 -14.800781 5.75 -15.21875 C 6.5625 -15.632812 7.4375 -15.84375 8.375 -15.84375 C 9.175781 -15.832031 9.96875 -15.628906 10.75 -15.234375 C 11.53125 -14.847656 12.210938 -14.289062 12.796875 -13.5625 L 12.328125 -13.1875 C 11.785156 -13.832031 11.171875 -14.335938 10.484375 -14.703125 C 9.804688 -15.066406 9.101562 -15.25 8.375 -15.25 C 7.625 -15.25 6.9375 -15.03125 6.3125 -14.59375 C 5.695312 -14.164062 5.15625 -13.59375 4.6875 -12.875 C 4.226562 -12.164062 3.867188 -11.367188 3.609375 -10.484375 C 3.359375 -9.609375 3.234375 -8.710938 3.234375 -7.796875 C 3.234375 -6.890625 3.359375 -5.992188 3.609375 -5.109375 C 3.867188 -4.234375 4.226562 -3.4375 4.6875 -2.71875 C 5.15625 -2.007812 5.695312 -1.4375 6.3125 -1 C 6.9375 -0.570312 7.625 -0.359375 8.375 -0.359375 C 9.414062 -0.359375 10.367188 -0.691406 11.234375 -1.359375 C 12.109375 -2.035156 12.789062 -2.882812 13.28125 -3.90625 L 13.828125 -3.671875 C 13.242188 -2.453125 12.46875 -1.5 11.5 -0.8125 C 10.539062 -0.125 9.5 0.222656 8.375 0.234375 Z M 8.375 0.234375 "/></g></g></g><g fill="#000000" fill-opacity="1"><g transform="translate(669.102154, 353.205642)"><g><path d="M 2.203125 0 L 2.203125 -15.78125 L 11.125 -15.78125 L 11.125 -15.1875 L 3.6875 -15.1875 L 3.6875 -8.28125 L 9.65625 -8.28125 L 9.65625 -7.6875 L 3.6875 -7.6875 L 3.6875 -0.59375 L 11.578125 -0.59375 L 11.578125 0 Z M 2.203125 0 "/></g></g></g><g fill="#000000" fill-opacity="1"><g transform="translate(682.886975, 353.205642)"><g><path d="M 2.203125 0 L 2.203125 -15.78125 L 11.125 -15.78125 L 11.125 -15.1875 L 3.6875 -15.1875 L 3.6875 -8.28125 L 9.65625 -8.28125 L 9.65625 -7.6875 L 3.6875 -7.6875 L 3.6875 -0.59375 L 11.578125 -0.59375 L 11.578125 0 Z M 2.203125 0 "/></g></g></g><g fill="#000000" fill-opacity="1"><g transform="translate(696.671797, 353.205642)"><g><path d="M 2.203125 0 L 2.203125 -15.78125 L 6.75 -15.78125 C 7.625 -15.78125 8.445312 -15.582031 9.21875 -15.1875 C 9.988281 -14.789062 10.660156 -14.238281 11.234375 -13.53125 C 11.816406 -12.820312 12.273438 -11.988281 12.609375 -11.03125 C 12.941406 -10.082031 13.109375 -9.054688 13.109375 -7.953125 C 13.109375 -6.859375 12.941406 -5.828125 12.609375 -4.859375 C 12.273438 -3.890625 11.816406 -3.039062 11.234375 -2.3125 C 10.660156 -1.59375 9.988281 -1.023438 9.21875 -0.609375 C 8.445312 -0.203125 7.625 0 6.75 0 Z M 3.6875 -0.578125 L 6.75 -0.578125 C 7.425781 -0.578125 8.054688 -0.785156 8.640625 -1.203125 C 9.222656 -1.628906 9.738281 -2.195312 10.1875 -2.90625 C 10.632812 -3.625 10.984375 -4.421875 11.234375 -5.296875 C 11.492188 -6.179688 11.625 -7.066406 11.625 -7.953125 C 11.625 -8.847656 11.492188 -9.722656 11.234375 -10.578125 C 10.984375 -11.441406 10.632812 -12.21875 10.1875 -12.90625 C 9.738281 -13.601562 9.222656 -14.15625 8.640625 -14.5625 C 8.054688 -14.976562 7.425781 -15.1875 6.75 -15.1875 L 3.6875 -15.1875 Z M 3.6875 -0.578125 "/></g></g></g></svg>